# xmcd
#
# Track frame offsets:
#	182
#	19105
#	33942
#	50930
#	71092
#	87577
#	109547
#	125595
#	142370
#	159637
#	179030
#	196817
#	214090
#	230877
#
# Disc length: 3272 seconds
#
# Revision: 7
# Processed by: cddbd v1.5.2PL0 Copyright (c) Steve Scherf et al.
# Submitted via: EasyCDDAExtractor 15.3.0.1
#
DISCID=dc0cc60e
DTITLE=Marta Sanchez - Mi Mundo
DYEAR=1995
DGENRE=Latin
TTITLE0=Dime La Verdad
TTITLE1=Arena Y Sol
TTITLE2=Vive Cada Dia
TTITLE3=Hablando Solos
TTITLE4=A Contrapie
TTITLE5=Que Haras Tu Cuando Mueras
TTITLE6=La Belleza
TTITLE7=Noche De Tarot
TTITLE8=Dos Amigas
TTITLE9=Tu Tambien
TTITLE10=Enamorada Sin Querer
TTITLE11=Tiempo Al Tiempo
TTITLE12=Mi Angel
TTITLE13=True Devotion
EXTD=YEAR: 1995 ID3G: 13
EXTT0=
EXTT1=
EXTT2=
EXTT3=
EXTT4=
EXTT5=
EXTT6=
EXTT7=
EXTT8=
EXTT9=
EXTT10=
EXTT11=
EXTT12=
EXTT13=
PLAYORDER=
